<svg width="518" height="161" viewBox="0 0 518 161" fill="none" xmlns="http://www.w3.org/2000/svg">
<path d="M43.208 63.912H42.92L41 47.976H41.24C43.016 60.072 48.056 63.48 54.776 63.144C63.56 62.712 66.968 56.28 66.2 52.104C64.712 43.656 45.992 41.688 42.872 33.24C40.76 27.528 46.664 21.288 54.488 21.528C58.568 21.672 62.456 23.544 63.416 21.048H63.704L65.672 36.6H65.432C64.76 28.872 59.912 22.2 53.768 21.816C47.72 21.48 41.576 27.288 44.888 32.808C49.352 40.248 67.304 40.872 67.304 52.536C67.304 59.208 61.448 63.192 53.912 63.48C49.016 63.672 44.696 60.6 43.208 63.912ZM88.7184 59.64C88.7184 62.472 90.1584 62.76 91.7424 62.76V63C89.2944 63 86.6064 62.568 86.6064 62.568V60.552C73.5024 67.992 69.7584 59.736 69.7584 53.736V40.488C69.7104 38.52 69.7104 38.232 66.7344 39.48V39.24L71.8704 37.08V55.272C71.8704 59.496 74.7024 67.848 86.6064 59.976V40.488C86.5584 38.52 86.5584 38.232 83.5824 39.48V39.24L88.7184 37.08V59.64ZM129.35 44.808V59.544C129.35 61.944 130.07 62.76 132.374 62.76V63H124.262V62.76C126.566 62.76 127.286 61.944 127.286 59.544V45.336C127.286 35.448 119.798 36.456 113.078 40.776C113.51 41.832 113.702 43.176 113.702 44.808V59.544C113.702 61.944 114.422 62.76 116.726 62.76V63H108.614V62.76C110.918 62.76 111.638 61.944 111.638 59.544V45.336C111.638 35.16 103.718 36.504 96.9016 41.112V59.64C96.9496 62.472 98.3416 62.76 99.9256 62.76V63H91.7656V62.76C93.6856 62.76 94.8376 62.376 94.7896 59.544V40.488C94.7416 38.52 94.7416 38.232 91.7656 39.48V39.24L96.9016 37.08V40.392C103.814 36.792 110.582 35.256 112.886 40.248C121.286 35.976 129.35 34.776 129.35 44.808ZM170.272 44.808V59.544C170.272 61.944 170.992 62.76 173.296 62.76V63H165.184V62.76C167.488 62.76 168.208 61.944 168.208 59.544V45.336C168.208 35.448 160.72 36.456 154 40.776C154.432 41.832 154.624 43.176 154.624 44.808V59.544C154.624 61.944 155.344 62.76 157.648 62.76V63H149.536V62.76C151.84 62.76 152.56 61.944 152.56 59.544V45.336C152.56 35.16 144.64 36.504 137.824 41.112V59.64C137.872 62.472 139.264 62.76 140.848 62.76V63H132.688V62.76C134.608 62.76 135.76 62.376 135.712 59.544V40.488C135.664 38.52 135.664 38.232 132.688 39.48V39.24L137.824 37.08V40.392C144.736 36.792 151.504 35.256 153.808 40.248C162.208 35.976 170.272 34.776 170.272 44.808ZM184.874 63.48C177.962 63.48 172.25 57.576 172.25 50.28C172.25 44.04 176.186 38.904 181.37 37.512C189.818 35.256 195.866 42.264 195.866 50.136H174.074C175.994 66.264 193.034 65.256 195.434 55.56H195.674C194.618 60.696 189.818 63.48 184.874 63.48ZM174.026 49.896H193.802C194.378 41.448 187.562 36.12 181.946 37.608C177.626 38.76 173.306 44.28 174.026 49.896ZM200.636 37.08V40.344C203.66 37.752 208.988 35.832 211.436 37.992L208.94 43.8H208.844C210.524 35.304 202.028 37.512 200.636 41.976V59.64C200.684 62.472 202.076 62.76 203.66 62.76V63H195.5V62.76C197.42 62.76 198.572 62.376 198.524 59.544V40.488C198.476 38.52 198.476 38.232 195.5 39.48V39.24L200.636 37.08ZM254.023 22.248V22.008H264.343V22.248C263.383 22.248 260.935 21.96 258.775 28.344L246.823 63.48H246.679L231.751 25.656C230.311 21.96 228.103 22.248 227.047 22.248V22.008H237.271V22.248C233.527 22.248 233.671 24.744 236.167 31.032L247.639 60.36L257.479 31.224C259.543 25.176 259.351 22.248 254.023 22.248ZM264.247 63.48C253.927 64.584 250.663 53.4 262.999 48.456C267.415 46.68 272.263 44.328 272.359 42.408C272.359 34.92 253.975 35.64 260.599 46.584L256.423 44.568C257.911 35.112 274.519 33.768 274.567 45.288V56.712C274.567 60.408 274.663 62.28 276.487 56.904H276.727C274.567 64.68 272.695 65.352 272.359 60.168L272.263 58.632C271.351 60.984 268.711 63 264.247 63.48ZM267.367 62.184C268.951 61.704 272.455 60.312 272.455 56.28V43.032H272.407C272.119 44.136 269.959 46.008 262.807 48.84C253.543 52.536 256.519 65.592 267.367 62.184ZM274.953 63V62.76C276.873 62.76 278.025 62.376 277.977 59.544V23.976C277.929 22.008 277.929 21.72 274.953 22.968V22.728L280.089 20.568V59.64C280.137 62.472 281.529 62.76 283.113 62.76V63H274.953ZM294.749 63.48C287.837 63.48 282.125 57.576 282.125 50.28C282.125 44.04 286.061 38.904 291.245 37.512C299.693 35.256 305.741 42.264 305.741 50.136H283.949C285.869 66.264 302.909 65.256 305.309 55.56H305.549C304.493 60.696 299.693 63.48 294.749 63.48ZM283.901 49.896H303.677C304.253 41.448 297.437 36.12 291.821 37.608C287.501 38.76 283.181 44.28 283.901 49.896ZM327.311 44.808V59.544C327.311 61.944 328.031 62.76 330.335 62.76V63H322.223V62.76C324.527 62.76 325.247 61.944 325.247 59.544V45.336C325.247 35.16 317.327 36.504 310.511 41.112V59.64C310.559 62.472 311.951 62.76 313.535 62.76V63H305.375V62.76C307.295 62.76 308.447 62.376 308.399 59.544V40.488C308.351 38.52 308.351 38.232 305.375 39.48V39.24L310.511 37.08V40.392C319.055 35.976 327.311 34.632 327.311 44.808ZM333.04 37.32V57.576C333.04 61.56 332.272 65.64 338.176 58.824V59.16C330.88 67.56 330.976 62.28 330.976 54.936V37.32H328.672V37.08H330.976V30.264L333.04 29.4V37.08H335.824V37.32H333.04ZM340.855 33.096C339.895 33.096 339.127 32.328 339.127 31.368C339.127 30.408 339.895 29.64 340.855 29.64C341.815 29.64 342.583 30.408 342.583 31.368C342.583 32.328 341.815 33.096 340.855 33.096ZM337.062 63V62.76C338.983 62.76 340.135 62.376 340.087 59.544V40.44C340.039 38.472 340.039 38.184 337.062 39.432V39.192L342.199 37.032V59.64C342.247 62.472 343.639 62.76 345.223 62.76V63H337.062ZM366.311 44.808V59.544C366.311 61.944 367.031 62.76 369.335 62.76V63H361.223V62.76C363.527 62.76 364.247 61.944 364.247 59.544V45.336C364.247 35.16 356.327 36.504 349.511 41.112V59.64C349.559 62.472 350.951 62.76 352.535 62.76V63H344.375V62.76C346.295 62.76 347.447 62.376 347.399 59.544V40.488C347.351 38.52 347.351 38.232 344.375 39.48V39.24L349.511 37.08V40.392C358.055 35.976 366.311 34.632 366.311 44.808ZM380.905 63.48C373.993 63.48 368.281 57.576 368.281 50.28C368.281 44.04 372.217 38.904 377.401 37.512C385.849 35.256 391.897 42.264 391.897 50.136H370.105C372.025 66.264 389.065 65.256 391.465 55.56H391.705C390.649 60.696 385.849 63.48 380.905 63.48ZM370.057 49.896H389.833C390.409 41.448 383.593 36.12 377.977 37.608C373.657 38.76 369.337 44.28 370.057 49.896Z" fill="#F00000"/>
<path d="M411.792 92.088L412.08 92.088L414 108.024L413.76 108.024C411.984 95.928 406.944 92.52 400.224 92.856C391.44 93.288 388.032 99.72 388.8 103.896C390.288 112.344 409.008 114.312 412.128 122.76C414.24 128.472 408.336 134.712 400.512 134.472C396.432 134.328 392.544 132.456 391.584 134.952L391.296 134.952L389.328 119.4L389.568 119.4C390.24 127.128 395.088 133.8 401.232 134.184C407.28 134.52 413.424 128.712 410.112 123.192C405.648 115.752 387.696 115.128 387.696 103.464C387.696 96.792 393.552 92.808 401.088 92.52C405.984 92.328 410.304 95.4 411.792 92.088ZM366.282 96.36C366.282 93.528 364.842 93.24 363.258 93.24L363.258 93C365.706 93 368.394 93.432 368.394 93.432L368.394 95.448C381.498 88.008 385.242 96.264 385.242 102.264L385.242 115.512C385.29 117.48 385.29 117.768 388.266 116.52L388.266 116.76L383.13 118.92L383.13 100.728C383.13 96.504 380.298 88.152 368.394 96.024L368.394 115.512C368.442 117.48 368.442 117.768 371.418 116.52L371.418 116.76L366.282 118.92L366.282 96.36ZM325.65 111.192L325.65 96.456C325.65 94.056 324.93 93.24 322.626 93.24L322.626 93L330.738 93L330.738 93.24C328.434 93.24 327.714 94.056 327.714 96.456L327.714 110.664C327.714 120.552 335.202 119.544 341.922 115.224C341.49 114.168 341.298 112.824 341.298 111.192L341.298 96.456C341.298 94.056 340.578 93.24 338.274 93.24L338.274 93L346.386 93L346.386 93.24C344.082 93.24 343.362 94.056 343.362 96.456L343.362 110.664C343.362 120.84 351.282 119.496 358.098 114.888L358.098 96.36C358.05 93.528 356.658 93.24 355.074 93.24L355.074 93L363.234 93L363.234 93.24C361.314 93.24 360.162 93.624 360.21 96.456L360.21 115.512C360.258 117.48 360.258 117.768 363.234 116.52L363.234 116.76L358.098 118.92L358.098 115.608C351.186 119.208 344.418 120.744 342.114 115.752C333.714 120.024 325.65 121.224 325.65 111.192ZM284.728 111.192L284.728 96.456C284.728 94.056 284.008 93.24 281.704 93.24L281.704 93L289.816 93L289.816 93.24C287.512 93.24 286.792 94.056 286.792 96.456L286.792 110.664C286.792 120.552 294.28 119.544 301 115.224C300.568 114.168 300.376 112.824 300.376 111.192L300.376 96.456C300.376 94.056 299.656 93.24 297.352 93.24L297.352 93L305.464 93L305.464 93.24C303.16 93.24 302.44 94.056 302.44 96.456L302.44 110.664C302.44 120.84 310.36 119.496 317.176 114.888L317.176 96.36C317.128 93.528 315.736 93.24 314.152 93.24L314.152 93L322.312 93L322.312 93.24C320.392 93.24 319.24 93.624 319.288 96.456L319.288 115.512C319.336 117.48 319.336 117.768 322.312 116.52L322.312 116.76L317.176 118.92L317.176 115.608C310.264 119.208 303.496 120.744 301.192 115.752C292.792 120.024 284.728 121.224 284.728 111.192ZM270.126 92.52C277.038 92.52 282.75 98.424 282.75 105.72C282.75 111.96 278.814 117.096 273.63 118.488C265.182 120.744 259.134 113.736 259.134 105.864L280.926 105.864C279.006 89.736 261.966 90.744 259.566 100.44L259.326 100.44C260.382 95.304 265.182 92.52 270.126 92.52ZM280.974 106.104L261.198 106.104C260.622 114.552 267.438 119.88 273.054 118.392C277.374 117.24 281.694 111.72 280.974 106.104ZM254.364 118.92L254.364 115.656C251.34 118.248 246.012 120.168 243.564 118.008L246.06 112.2L246.156 112.2C244.476 120.696 252.972 118.488 254.364 114.024L254.364 96.36C254.316 93.528 252.924 93.24 251.34 93.24L251.34 93L259.5 93L259.5 93.24C257.58 93.24 256.428 93.624 256.476 96.456L256.476 115.512C256.524 117.48 256.524 117.768 259.5 116.52L259.5 116.76L254.364 118.92ZM200.977 133.752L200.977 133.992L190.657 133.992L190.657 133.752C191.617 133.752 194.065 134.04 196.225 127.656L208.177 92.52L208.321 92.52L223.249 130.344C224.689 134.04 226.897 133.752 227.953 133.752L227.953 133.992L217.729 133.992L217.729 133.752C221.473 133.752 221.329 131.256 218.833 124.968L207.361 95.64L197.521 124.776C195.457 130.824 195.649 133.752 200.977 133.752ZM190.753 92.52C201.073 91.416 204.337 102.6 192.001 107.544C187.585 109.32 182.737 111.672 182.641 113.592C182.641 121.08 201.025 120.36 194.401 109.416L198.577 111.432C197.089 120.888 180.481 122.232 180.433 110.712L180.433 99.288C180.433 95.592 180.337 93.72 178.513 99.096L178.273 99.096C180.433 91.32 182.305 90.648 182.641 95.832L182.737 97.368C183.649 95.016 186.289 93 190.753 92.52ZM187.633 93.816C186.049 94.296 182.545 95.688 182.545 99.72L182.545 112.968L182.593 112.968C182.881 111.864 185.041 109.992 192.193 107.16C201.457 103.464 198.481 90.408 187.633 93.816ZM180.047 93L180.047 93.24C178.127 93.24 176.975 93.624 177.023 96.456L177.023 132.024C177.071 133.992 177.071 134.28 180.047 133.032L180.047 133.272L174.911 135.432L174.911 96.36C174.863 93.528 173.471 93.24 171.887 93.24L171.887 93L180.047 93ZM160.251 92.52C167.163 92.52 172.875 98.424 172.875 105.72C172.875 111.96 168.939 117.096 163.755 118.488C155.307 120.744 149.259 113.736 149.259 105.864L171.051 105.864C169.131 89.736 152.091 90.744 149.691 100.44L149.451 100.44C150.507 95.304 155.307 92.52 160.251 92.52ZM171.099 106.104L151.323 106.104C150.747 114.552 157.563 119.88 163.179 118.392C167.499 117.24 171.819 111.72 171.099 106.104ZM127.689 111.192L127.689 96.456C127.689 94.056 126.969 93.24 124.665 93.24L124.665 93L132.777 93L132.777 93.24C130.473 93.24 129.753 94.056 129.753 96.456L129.753 110.664C129.753 120.84 137.673 119.496 144.489 114.888L144.489 96.36C144.441 93.528 143.049 93.24 141.465 93.24L141.465 93L149.625 93L149.625 93.24C147.705 93.24 146.553 93.624 146.601 96.456L146.601 115.512C146.649 117.48 146.649 117.768 149.625 116.52L149.625 116.76L144.489 118.92L144.489 115.608C135.945 120.024 127.689 121.368 127.689 111.192ZM121.96 118.68L121.96 98.424C121.96 94.44 122.728 90.36 116.824 97.176L116.824 96.84C124.12 88.44 124.024 93.72 124.024 101.064L124.024 118.68L126.328 118.68L126.328 118.92L124.024 118.92L124.024 125.736L121.96 126.6L121.96 118.92L119.176 118.92L119.176 118.68L121.96 118.68ZM114.145 122.904C115.105 122.904 115.873 123.672 115.873 124.632C115.873 125.592 115.105 126.36 114.145 126.36C113.185 126.36 112.417 125.592 112.417 124.632C112.417 123.672 113.185 122.904 114.145 122.904ZM117.937 93L117.937 93.24C116.017 93.24 114.865 93.624 114.913 96.456L114.913 115.56C114.961 117.528 114.961 117.816 117.937 116.568L117.937 116.808L112.801 118.968L112.801 96.36C112.753 93.528 111.361 93.24 109.777 93.24L109.777 93L117.937 93ZM88.689 111.192L88.689 96.456C88.689 94.056 87.969 93.24 85.665 93.24L85.665 93L93.777 93L93.777 93.24C91.473 93.24 90.753 94.056 90.753 96.456L90.753 110.664C90.753 120.84 98.673 119.496 105.489 114.888L105.489 96.36C105.441 93.528 104.049 93.24 102.465 93.24L102.465 93L110.625 93L110.625 93.24C108.705 93.24 107.553 93.624 107.601 96.456L107.601 115.512C107.649 117.48 107.649 117.768 110.625 116.52L110.625 116.76L105.489 118.92L105.489 115.608C96.945 120.024 88.689 121.368 88.689 111.192ZM74.0947 92.52C81.0067 92.52 86.7187 98.424 86.7187 105.72C86.7187 111.96 82.7827 117.096 77.5987 118.488C69.1507 120.744 63.1027 113.736 63.1027 105.864L84.8947 105.864C82.9747 89.736 65.9347 90.744 63.5347 100.44L63.2947 100.44C64.3507 95.304 69.1507 92.52 74.0947 92.52ZM84.9427 106.104L65.1667 106.104C64.5907 114.552 71.4067 119.88 77.0227 118.392C81.3427 117.24 85.6627 111.72 84.9427 106.104Z" fill="#E2A5A5"/>
<path d="M405.648 67.4281L405.36 67.4281L408.672 51.4921L408.912 51.4921C406.704 63.5881 410.64 66.9961 417.504 66.6601C426.432 66.2281 431.904 59.7961 432.528 55.6201C433.776 47.1721 415.68 45.2041 415.296 36.7561C415.056 31.0441 422.976 24.8041 430.752 25.0441C434.784 25.1881 438.048 27.0601 439.824 24.5641L440.112 24.5641L437.04 40.1161L436.8 40.1161C438.576 28.8361 435.984 25.5721 431.088 25.2841C424.032 24.8521 415.968 30.8041 417.504 36.3241C419.52 43.7641 437.232 44.3881 433.44 56.0521C431.328 62.7241 424.176 66.7081 416.496 66.9961C411.552 67.1881 408.288 64.1161 405.648 67.4281Z" fill="#E2A5A5"/>
<path d="M443.76 22.7833L443.85 22.5582L453.528 22.5582L453.438 22.7833C452.538 22.7833 450.332 22.5132 446.326 28.5L424.449 61.4501L424.314 61.4501L421.839 25.9792C421.614 22.5132 419.453 22.7833 418.463 22.7833L418.553 22.5582L428.141 22.5582L428.051 22.7833C424.539 22.7833 423.909 25.124 424.359 31.0208L426.16 58.5242L444.256 31.2008C448.037 25.5291 448.757 22.7833 443.76 22.7833Z" fill="#E2A5A5"/>
<path d="M416.981 55.1145C416.605 54.702 417.283 53.3477 416.665 52.9115C416.218 52.5959 415.778 52.1987 415.316 52.9985C413.941 55.3801 416.294 56.3053 415.044 58.4704" stroke="#E2A5A5" stroke-width="0.25"/>
<path d="M416.314 54.7695C416.859 54.8889 417.693 53.6245 418.38 53.9415C418.877 54.1709 419.441 54.3537 418.979 55.1535C417.604 57.5351 415.627 55.9603 414.377 58.1254" stroke="#E2A5A5" stroke-width="0.25"/>
<path d="M477.352 88.5719L477.64 88.5719L474.328 104.508L474.088 104.508C476.296 92.4119 472.36 89.0039 465.496 89.3399C456.568 89.7719 451.096 96.2039 450.472 100.38C449.224 108.828 467.32 110.796 467.704 119.244C467.944 124.956 460.024 131.196 452.248 130.956C448.216 130.812 444.952 128.94 443.176 131.436L442.888 131.436L445.96 115.884L446.2 115.884C444.424 127.164 447.016 130.428 451.912 130.716C458.968 131.148 467.032 125.196 465.496 119.676C463.48 112.236 445.768 111.612 449.56 99.9479C451.672 93.2759 458.824 89.2919 466.504 89.0039C471.448 88.8119 474.712 91.8839 477.352 88.5719Z" fill="#F00000"/>
<path d="M439.24 133.217L439.15 133.442L429.472 133.442L429.562 133.217C430.462 133.217 432.668 133.487 436.674 127.5L458.551 94.5499L458.686 94.5499L461.161 130.021C461.386 133.487 463.547 133.217 464.537 133.217L464.447 133.442L454.859 133.442L454.949 133.217C458.461 133.217 459.091 130.876 458.641 124.979L456.84 97.4758L438.744 124.799C434.963 130.471 434.243 133.217 439.24 133.217Z" fill="#F00000"/>
<path d="M466.019 100.885C466.395 101.298 465.717 102.652 466.335 103.089C466.782 103.404 467.222 103.801 467.684 103.002C469.059 100.62 466.706 99.6947 467.956 97.5296" stroke="#F00000" stroke-width="0.25"/>
<path d="M466.686 101.23C466.141 101.111 465.307 102.375 464.62 102.058C464.123 101.829 463.559 101.646 464.021 100.846C465.396 98.4649 467.373 100.04 468.623 97.8746" stroke="#F00000" stroke-width="0.25"/>
</svg>
